{
  "accessors": [
    {
      "bufferView": 2,
      "componentType": 5126,
      "count": 65534,
      "max": [
        3465.768798828125,
        6582.2841796875,
        560.0
      ],
      "min": [
        -2444.1162109375,
        -5787.04345703125,
        -2.4000000848900527e-05
      ],
      "type": "VEC3"
    },
    {
      "bufferView": 2,
      "byteOffset": 786408,
      "componentType": 5126,
      "count": 65534,
      "max": [
        1.0,
        1.0,
        1.0
      ],
      "min": [
        -1.0,
        -1.0,
        0.0
      ],
      "type": "VEC3"
    },
    {
      "bufferView": 0,
      "componentType": 5125,
      "count": 143796,
      "type": "SCALAR"
    },
    {
      "bufferView": 2,
      "byteOffset": 1572816,
      "componentType": 5126,
      "count": 65532,
      "max": [
        3307.984619140625,
        6559.9765625,
        560.0
      ],
      "min": [
        -2432.349609375,
        -5818.1943359375,
        -3.7000001611886546e-05
      ],
      "type": "VEC3"
    },
    {
      "bufferView": 2,
      "byteOffset": 2359200,
      "componentType": 5126,
      "count": 65532,
      "max": [
        1.0,
        1.0,
        1.0
      ],
      "min": [
        -1.0,
        -1.0,
        0.0
      ],
      "type": "VEC3"
    },
    {
      "bufferView": 0,
      "byteOffset": 575184,
      "componentType": 5125,
      "count": 99006,
      "type": "SCALAR"
    },
    {
      "bufferView": 2,
      "byteOffset": 3145584,
      "componentType": 5126,
      "count": 65532,
      "max": [
        3465.768798828125,
        6582.2841796875,
        358.3999938964844
      ],
      "min": [
        -2444.1162109375,
        -5527.33837890625,
        -3.7000001611886546e-05
      ],
      "type": "VEC3"
    },
    {
      "bufferView": 2,
      "byteOffset": 3931968,
      "componentType": 5126,
      "count": 65532,
      "max": [
        1.0,
        1.0,
        1.0
      ],
      "min": [
        -1.0,
        -1.0,
        0.0
      ],
      "type": "VEC3"
    },
    {
      "bufferView": 0,
      "byteOffset": 971208,
      "componentType": 5125,
      "count": 100233,
      "type": "SCALAR"
    },
    {
      "bufferView": 2,
      "byteOffset": 4718352,
      "componentType": 5126,
      "count": 23175,
      "max": [
        3236.216796875,
        6496.0595703125,
        243.1999969482422
      ],
      "min": [
        -2292.09814453125,
        -5557.2919921875,
        -3.7000001611886546e-05
      ],
      "type": "VEC3"
    },
    {
      "bufferView": 2,
      "byteOffset": 4996452,
      "componentType": 5126,
      "count": 23175,
      "max": [
        1.0,
        1.0,
        1.0
      ],
      "min": [
        -1.0,
        -1.0,
        0.0
      ],
      "type": "VEC3"
    },
    {
      "bufferView": 0,
      "byteOffset": 1372140,
      "componentType": 5125,
      "count": 34788,
      "type": "SCALAR"
    },
    {
      "bufferView": 2,
      "byteOffset": 5274552,
      "componentType": 5126,
      "count": 65532,
      "max": [
        3310.47509765625,
        6500.90185546875,
        4.700868129730225
      ],
      "min": [
        -2421.4697265625,
        -5714.06494140625,
        -0.0877859964966774
      ],
      "type": "VEC3"
    },
    {
      "bufferView": 2,
      "byteOffset": 6060936,
      "componentType": 5126,
      "count": 65532,
      "max": [
        0.999998927116394,
        0.9996135830879211,
        1.0
      ],
      "min": [
        -0.999998927116394,
        -0.9996135830879211,
        -1.0
      ],
      "type": "VEC3"
    },
    {
      "bufferView": 0,
      "byteOffset": 1511292,
      "componentType": 5125,
      "count": 101010,
      "type": "SCALAR"
    },
    {
      "bufferView": 2,
      "byteOffset": 6847320,
      "componentType": 5126,
      "count": 65534,
      "max": [
        3308.538818359375,
        6501.0302734375,
        4.700868129730225
      ],
      "min": [
        -2421.518310546875,
        -5716.71435546875,
        -0.08779200166463852
      ],
      "type": "VEC3"
    },
    {
      "bufferView": 2,
      "byteOffset": 7633728,
      "componentType": 5126,
      "count": 65534,
      "max": [
        0.999998927116394,
        0.9996132254600525,
        1.0
      ],
      "min": [
        -0.999998927116394,
        -0.9996135830879211,
        -1.0
      ],
      "type": "VEC3"
    },
    {
      "bufferView": 0,
      "byteOffset": 1915332,
      "componentType": 5125,
      "count": 103581,
      "type": "SCALAR"
    },
    {
      "bufferView": 2,
      "byteOffset": 8420136,
      "componentType": 5126,
      "count": 65533,
      "max": [
        3294.444091796875,
        6501.0302734375,
        4.700860977172852
      ],
      "min": [
        -2397.328857421875,
        -5714.06494140625,
        -0.08779300004243851
      ],
      "type": "VEC3"
    },
    {
      "bufferView": 2,
      "byteOffset": 9206532,
      "componentType": 5126,
      "count": 65533,
      "max": [
        0.999998927116394,
        0.9996135830879211,
        1.0
      ],
      "min": [
        -0.999998927116394,
        -0.9996135830879211,
        -1.0
      ],
      "type": "VEC3"
    },
    {
      "bufferView": 0,
      "byteOffset": 2329656,
      "componentType": 5125,
      "count": 100482,
      "type": "SCALAR"
    },
    {
      "bufferView": 2,
      "byteOffset": 9992928,
      "componentType": 5126,
      "count": 65532,
      "max": [
        3294.37451171875,
        6501.0302734375,
        4.700868129730225
      ],
      "min": [
        -2421.4697265625,
        -5714.06494140625,
        -0.08778800070285797
      ],
      "type": "VEC3"
    },
    {
      "bufferView": 2,
      "byteOffset": 10779312,
      "componentType": 5126,
      "count": 65532,
      "max": [
        0.9999997615814209,
        0.9998137354850769,
        0.039699018001556396
      ],
      "min": [
        -0.9999998807907104,
        -0.9998137354850769,
        -1.0
      ],
      "type": "VEC3"
    },
    {
      "bufferView": 0,
      "byteOffset": 2731584,
      "componentType": 5125,
      "count": 99240,
      "type": "SCALAR"
    },
    {
      "bufferView": 2,
      "byteOffset": 11565696,
      "componentType": 5126,
      "count": 65532,
      "max": [
        3308.538818359375,
        6473.935546875,
        4.700860023498535
      ],
      "min": [
        -2421.43115234375,
        -5716.71435546875,
        -0.0877859964966774
      ],
      "type": "VEC3"
    },
    {
      "bufferView": 2,
      "byteOffset": 12352080,
      "componentType": 5126,
      "count": 65532,
      "max": [
        0.9999995231628418,
        0.9998156428337097,
        0.037098225206136703
      ],
      "min": [
        -0.9999994039535522,
        -0.999809205532074,
        -0.036601100116968155
      ],
      "type": "VEC3"
    },
    {
      "bufferView": 0,
      "byteOffset": 3128544,
      "componentType": 5125,
      "count": 99042,
      "type": "SCALAR"
    },
    {
      "bufferView": 2,
      "byteOffset": 13138464,
      "componentType": 5126,
      "count": 65534,
      "max": [
        3308.4814453125,
        6462.69921875,
        4.613097190856934
      ],
      "min": [
        -2421.518310546875,
        -5715.51416015625,
        -2.300000051036477e-05
      ],
      "type": "VEC3"
    },
    {
      "bufferView": 2,
      "byteOffset": 13924872,
      "componentType": 5126,
      "count": 65534,
      "max": [
        0.999998927116394,
        0.9996135830879211,
        0.027901485562324524
      ],
      "min": [
        -0.999998927116394,
        -0.9996135830879211,
        -0.027901433408260345
      ],
      "type": "VEC3"
    },
    {
      "bufferView": 0,
      "byteOffset": 3524712,
      "componentType": 5125,
      "count": 99096,
      "type": "SCALAR"
    },
    {
      "bufferView": 2,
      "byteOffset": 14711280,
      "componentType": 5126,
      "count": 65534,
      "max": [
        3267.2041015625,
        6499.46923828125,
        4.700851917266846
      ],
      "min": [
        -2421.451416015625,
        -5714.04052734375,
        -0.08778399974107742
      ],
      "type": "VEC3"
    },
    {
      "bufferView": 2,
      "byteOffset": 15497688,
      "componentType": 5126,
      "count": 65534,
      "max": [
        0.999998927116394,
        0.9997537732124329,
        0.037998903542757034
      ],
      "min": [
        -0.999998927116394,
        -0.9998137354850769,
        -0.03669901564717293
      ],
      "type": "VEC3"
    },
    {
      "bufferView": 0,
      "byteOffset": 3921096,
      "componentType": 5125,
      "count": 99246,
      "type": "SCALAR"
    },
    {
      "bufferView": 2,
      "byteOffset": 16284096,
      "componentType": 5126,
      "count": 65534,
      "max": [
        3310.482177734375,
        6472.603515625,
        4.700860023498535
      ],
      "min": [
        -2385.553955078125,
        -5706.8916015625,
        -0.08779300004243851
      ],
      "type": "VEC3"
    },
    {
      "bufferView": 2,
      "byteOffset": 17070504,
      "componentType": 5126,
      "count": 65534,
      "max": [
        0.9999995231628418,
        0.9998137354850769,
        1.0
      ],
      "min": [
        -0.9999995231628418,
        -0.9998409152030945,
        -0.03700070455670357
      ],
      "type": "VEC3"
    },
    {
      "bufferView": 0,
      "byteOffset": 4318080,
      "componentType": 5125,
      "count": 99084,
      "type": "SCALAR"
    },
    {
      "bufferView": 2,
      "byteOffset": 17856912,
      "componentType": 5126,
      "count": 65532,
      "max": [
        3310.482177734375,
        6461.8740234375,
        4.7008538246154785
      ],
      "min": [
        -2421.518310546875,
        -5710.033203125,
        -0.08779200166463852
      ],
      "type": "VEC3"
    },
    {
      "bufferView": 2,
      "byteOffset": 18643296,
      "componentType": 5126,
      "count": 65532,
      "max": [
        0.999998927116394,
        0.9996135830879211,
        1.0
      ],
      "min": [
        -0.999998927116394,
        -0.9996135830879211,
        -1.0
      ],
      "type": "VEC3"
    },
    {
      "bufferView": 0,
      "byteOffset": 4714416,
      "componentType": 5125,
      "count": 102228,
      "type": "SCALAR"
    },
    {
      "bufferView": 2,
      "byteOffset": 19429680,
      "componentType": 5126,
      "count": 65532,
      "max": [
        3310.482177734375,
        6512.87060546875,
        4.700861930847168
      ],
      "min": [
        -2440.542724609375,
        -5802.21923828125,
        -0.08778700232505798
      ],
      "type": "VEC3"
    },
    {
      "bufferView": 2,
      "byteOffset": 20216064,
      "componentType": 5126,
      "count": 65532,
      "max": [
        0.999998927116394,
        0.9996135830879211,
        1.0
      ],
      "min": [
        -0.999998927116394,
        -0.9996135830879211,
        -1.0
      ],
      "type": "VEC3"
    },
    {
      "bufferView": 0,
      "byteOffset": 5123328,
      "componentType": 5125,
      "count": 103308,
      "type": "SCALAR"
    },
    {
      "bufferView": 2,
      "byteOffset": 21002448,
      "componentType": 5126,
      "count": 47106,
      "max": [
        3263.4833984375,
        6457.42431640625,
        4.700867176055908
      ],
      "min": [
        -2385.553955078125,
        -5716.5859375,
        -0.08778499811887741
      ],
      "type": "VEC3"
    },
    {
      "bufferView": 2,
      "byteOffset": 21567720,
      "componentType": 5126,
      "count": 47106,
      "max": [
        0.32379597425460815,
        0.5494059920310974,
        1.0
      ],
      "min": [
        -0.3622937798500061,
        -0.03960125148296356,
        -1.0
      ],
      "type": "VEC3"
    },
    {
      "bufferView": 0,
      "byteOffset": 5536560,
      "componentType": 5125,
      "count": 73251,
      "type": "SCALAR"
    },
    {
      "bufferView": 2,
      "byteOffset": 22132992,
      "componentType": 5126,
      "count": 2860,
      "max": [
        3483.091796875,
        6709.81982421875,
        0.0
      ],
      "min": [
        -2472.119384765625,
        -5887.00390625,
        -113.35005187988281
      ],
      "type": "VEC3"
    },
    {
      "bufferView": 2,
      "byteOffset": 22167312,
      "componentType": 5126,
      "count": 2860,
      "max": [
        0.7071068286895752,
        0.7071068286895752,
        1.0
      ],
      "min": [
        -0.7071068286895752,
        -0.7071068286895752,
        -1.0
      ],
      "type": "VEC3"
    },
    {
      "bufferView": 1,
      "componentType": 5126,
      "count": 2860,
      "max": [
        0.640625,
        1.0
      ],
      "min": [
        0.3125,
        0.0
      ],
      "type": "VEC2"
    },
    {
      "bufferView": 0,
      "byteOffset": 5829564,
      "componentType": 5125,
      "count": 17148,
      "type": "SCALAR"
    }
  ],
  "asset": {
    "extras": {
      "author": "jack.simmons (https://sketchfab.com/jack.simmons)",
      "license": "CC-BY-4.0 (http://creativecommons.org/licenses/by/4.0/)",
      "source": "https://sketchfab.com/3d-models/las-vegas-usa-6e25a09ebaac4557b24951ef2254f29f",
      "title": "Las Vegas, USA"
    },
    "generator": "Sketchfab-12.64.0",
    "version": "2.0"
  },
  "bufferViews": [
    {
      "buffer": 0,
      "byteLength": 5898156,
      "name": "floatBufferViews",
      "target": 34963
    },
    {
      "buffer": 0,
      "byteLength": 22880,
      "byteOffset": 5898156,
      "byteStride": 8,
      "name": "floatBufferViews",
      "target": 34962
    },
    {
      "buffer": 0,
      "byteLength": 22201632,
      "byteOffset": 5921036,
      "byteStride": 12,
      "name": "floatBufferViews",
      "target": 34962
    }
  ],
  "buffers": [
    {
      "byteLength": 28122668,
      "uri": "scene.bin"
    }
  ],
  "materials": [
    {
      "doubleSided": true,
      "name": "None",
      "pbrMetallicRoughness": {
        "baseColorFactor": [
          0.8,
          0.8,
          0.8,
          1.0
        ],
        "metallicFactor": 0.0,
        "roughnessFactor": 0.6217033564000001
      }
    },
    {
      "doubleSided": true,
      "name": "rastMat.001",
      "pbrMetallicRoughness": {
        "baseColorFactor": [
          0.8,
          0.8,
          0.8,
          1.0
        ],
        "metallicFactor": 0.0,
        "roughnessFactor": 0.8063508327
      }
    }
  ],
  "meshes": [
    {
      "name": "Object_0",
      "primitives": [
        {
          "attributes": {
            "NORMAL": 1,
            "POSITION": 0
          },
          "indices": 2,
          "material": 0,
          "mode": 4
        }
      ]
    },
    {
      "name": "Object_1",
      "primitives": [
        {
          "attributes": {
            "NORMAL": 4,
            "POSITION": 3
          },
          "indices": 5,
          "material": 0,
          "mode": 4
        }
      ]
    },
    {
      "name": "Object_2",
      "primitives": [
        {
          "attributes": {
            "NORMAL": 7,
            "POSITION": 6
          },
          "indices": 8,
          "material": 0,
          "mode": 4
        }
      ]
    },
    {
      "name": "Object_3",
      "primitives": [
        {
          "attributes": {
            "NORMAL": 10,
            "POSITION": 9
          },
          "indices": 11,
          "material": 0,
          "mode": 4
        }
      ]
    },
    {
      "name": "Object_4",
      "primitives": [
        {
          "attributes": {
            "NORMAL": 13,
            "POSITION": 12
          },
          "indices": 14,
          "material": 0,
          "mode": 4
        }
      ]
    },
    {
      "name": "Object_5",
      "primitives": [
        {
          "attributes": {
            "NORMAL": 16,
            "POSITION": 15
          },
          "indices": 17,
          "material": 0,
          "mode": 4
        }
      ]
    },
    {
      "name": "Object_6",
      "primitives": [
        {
          "attributes": {
            "NORMAL": 19,
            "POSITION": 18
          },
          "indices": 20,
          "material": 0,
          "mode": 4
        }
      ]
    },
    {
      "name": "Object_7",
      "primitives": [
        {
          "attributes": {
            "NORMAL": 22,
            "POSITION": 21
          },
          "indices": 23,
          "material": 0,
          "mode": 4
        }
      ]
    },
    {
      "name": "Object_8",
      "primitives": [
        {
          "attributes": {
            "NORMAL": 25,
            "POSITION": 24
          },
          "indices": 26,
          "material": 0,
          "mode": 4
        }
      ]
    },
    {
      "name": "Object_9",
      "primitives": [
        {
          "attributes": {
            "NORMAL": 28,
            "POSITION": 27
          },
          "indices": 29,
          "material": 0,
          "mode": 4
        }
      ]
    },
    {
      "name": "Object_10",
      "primitives": [
        {
          "attributes": {
            "NORMAL": 31,
            "POSITION": 30
          },
          "indices": 32,
          "material": 0,
          "mode": 4
        }
      ]
    },
    {
      "name": "Object_11",
      "primitives": [
        {
          "attributes": {
            "NORMAL": 34,
            "POSITION": 33
          },
          "indices": 35,
          "material": 0,
          "mode": 4
        }
      ]
    },
    {
      "name": "Object_12",
      "primitives": [
        {
          "attributes": {
            "NORMAL": 37,
            "POSITION": 36
          },
          "indices": 38,
          "material": 0,
          "mode": 4
        }
      ]
    },
    {
      "name": "Object_13",
      "primitives": [
        {
          "attributes": {
            "NORMAL": 40,
            "POSITION": 39
          },
          "indices": 41,
          "material": 0,
          "mode": 4
        }
      ]
    },
    {
      "name": "Object_14",
      "primitives": [
        {
          "attributes": {
            "NORMAL": 43,
            "POSITION": 42
          },
          "indices": 44,
          "material": 0,
          "mode": 4
        }
      ]
    },
    {
      "name": "Object_15",
      "primitives": [
        {
          "attributes": {
            "NORMAL": 46,
            "POSITION": 45,
            "TEXCOORD_0": 47
          },
          "indices": 48,
          "material": 1,
          "mode": 4
        }
      ]
    }
  ],
  "nodes": [
    {
      "children": [
        1
      ],
      "matrix": [
        1.0,
        0.0,
        0.0,
        0.0,
        0.0,
        2.220446049250313e-16,
        -1.0,
        0.0,
        0.0,
        1.0,
        2.220446049250313e-16,
        0.0,
        0.0,
        0.0,
        0.0,
        1.0
      ],
      "name": "Sketchfab_model"
    },
    {
      "children": [
        2,
        3,
        4,
        5,
        6,
        7,
        8,
        9,
        10,
        11,
        12,
        13,
        14,
        15,
        16,
        17
      ],
      "name": "untitled2.obj.cleaner.materialmerger.gles"
    },
    {
      "mesh": 0,
      "name": "Object_2"
    },
    {
      "mesh": 1,
      "name": "Object_3"
    },
    {
      "mesh": 2,
      "name": "Object_4"
    },
    {
      "mesh": 3,
      "name": "Object_5"
    },
    {
      "mesh": 4,
      "name": "Object_6"
    },
    {
      "mesh": 5,
      "name": "Object_7"
    },
    {
      "mesh": 6,
      "name": "Object_8"
    },
    {
      "mesh": 7,
      "name": "Object_9"
    },
    {
      "mesh": 8,
      "name": "Object_10"
    },
    {
      "mesh": 9,
      "name": "Object_11"
    },
    {
      "mesh": 10,
      "name": "Object_12"
    },
    {
      "mesh": 11,
      "name": "Object_13"
    },
    {
      "mesh": 12,
      "name": "Object_14"
    },
    {
      "mesh": 13,
      "name": "Object_15"
    },
    {
      "mesh": 14,
      "name": "Object_16"
    },
    {
      "mesh": 15,
      "name": "Object_17"
    }
  ],
  "scene": 0,
  "scenes": [
    {
      "name": "Sketchfab_Scene",
      "nodes": [
        0
      ]
    }
  ]
}
